# xmcd
#
# Track frame offsets: 
#        150
#        16351
#        28920
#        43530
#        56131
#        67739
#        85799
#        103331
#        114386
#        130857
#        144744
#        158127
#        172631
#        187493
#        201846
#        212322
#
# Disc length: 2993 seconds
#
# Revision: 3
# Processed by: cddbd v1.5.2PL0 Copyright (c) Steve Scherf et al.
# Submitted via: ExactAudioCopy v1.0b3
#
DISCID=de0baf10
DTITLE=Linda Ronstadt - The Platinum Collection
DYEAR=2007
DGENRE=WPop
TTITLE0=Desperado
TTITLE1=Heat  Wave
TTITLE2=Tracks Of My Tears
TTITLE3=Love Is A Rose
TTITLE4=That'll Be The Day
TTITLE5=Someone To Lay Down Beside Me
TTITLE6=Blue Bayou
TTITLE7=It's So Easy
TTITLE8=Poor Poor Pitiful Me
TTITLE9=Tumbling Dice
TTITLE10=Back In The U.S.A.
TTITLE11=Just One Look
TTITLE12=Ooh Baby Baby
TTITLE13=Hurt So Bad
TTITLE14=How Do I Make You
TTITLE15=I Can't Let Go
EXTD=
EXTT0=
EXTT1=
EXTT2=
EXTT3=
EXTT4=
EXTT5=
EXTT6=
EXTT7=
EXTT8=
EXTT9=
EXTT10=
EXTT11=
EXTT12=
EXTT13=
EXTT14=
EXTT15=
PLAYORDER=
